<?xml version="1.0" encoding="iso-8859-1"?>
<!-- Generator: Adobe Illustrator 19.0.0, SVG Export Plug-In . SVG Version: 6.00 Build 0)  -->
<svg version="1.1" id="Layer_1" xmlns="http://www.w3.org/2000/svg" xmlns:xlink="http://www.w3.org/1999/xlink" x="0px" y="0px"
	 viewBox="0 0 400 400" style="enable-background:new 0 0 400 400;" xml:space="preserve">
<path style="fill:#D3F5FF;" d="M320,109l76,28v244l-76-28V109z"/>
<path style="fill:#B7EFFF;" d="M316,109l-76,28v244l76-28V109z"/>
<path style="fill:#D3F5FF;" d="M160,109l76,28v244l-76-28V109z"/>
<path style="fill:#B7EFFF;" d="M156,109l-76,28v244l76-28V109z"/>
<path style="fill:#D3F5FF;" d="M4,109l72,28v244L4,353V109z"/>
<g>
	<path style="fill:#E5F9FF;" d="M59.2,374.6L76,345.8V251L14.8,357L59.2,374.6L59.2,374.6z"/>
	<path style="fill:#E5F9FF;" d="M236,169.8L160,301v52l76,28V169.8L236,169.8z"/>
</g>
<path style="fill:#A1E8FD;" d="M156,355.4V223L78.4,357v23.6L156,355.4z"/>
<g>
	<path style="fill:#E5F9FF;" d="M76,220.2L4,344.6v-28.4l72-124.8V220.2L76,220.2z"/>
	<path style="fill:#E5F9FF;" d="M396,268.6l-53.6,92.8l-13.6-4.8l67.2-116V268.6L396,268.6z"/>
</g>
<path style="fill:#A1E8FD;" d="M317.2,251.4L240,384.6v-54.4L317.2,197v30.4V251.4z"/>
<path style="fill:#EBD0CA;" d="M240,212.6c20-34,42-65.2,47.2-92.8L240,137V212.6z"/>
<path style="fill:#E5F9FF;" d="M320,288.2l76-131.6V137l-76-28V288.2L320,288.2z"/>
<g>
	<path style="fill:#64BCE1;" d="M8,117L8,117v228c0,3.2,2.8,7.6,6,9.2l61.6,24.4c2.4,0.8,6.8,0.8,8.8,0l65.2-26
		c6-2.4,14.8-2.4,20.8,0l65.2,26c2.4,0.8,6.8,0.8,8.8,0l65.2-26c6-2.4,14.8-2.4,20.8,0l57.6,23.2c2.8,1.2,4,0.4,4-2.8V145
		c0-3.2-2.8-7.6-6-9.2l-61.6-24.4c-2.4-0.8-6.8-0.8-8.8,0l-65.2,26c-6,2.4-14.8,2.4-20.8,0l-65.2-26c-2.4-0.8-6.8-0.8-8.8,0
		l-65.2,26c-6,2.4-14.8,2.4-20.8,0L12,114.2C8.8,113,8,113.8,8,117L8,117z M0,117c0-8.8,6.8-13.2,14.8-10l57.6,23.2
		c4,1.6,10.8,1.6,14.8,0l65.2-26c4-1.6,10.8-1.6,14.8,0l65.2,26c4,1.6,10.8,1.6,14.8,0l65.2-26c4-1.6,10.8-1.6,14.8,0l61.6,24.4
		c6,2.4,11.2,9.6,11.2,16.4v228c0,8.8-6.8,13.2-14.8,10l-57.6-23.2c-4-1.6-10.8-1.6-14.8,0l-65.2,26c-4,1.6-10.8,1.6-14.8,0
		l-65.2-26c-4-1.6-10.8-1.6-14.8,0l-65.2,26c-4,1.6-10.8,1.6-14.8,0l-61.6-24.4C4.8,359,0,351.8,0,345V117L0,117z"/>
	<rect x="76" y="137" style="fill:#64BCE1;" width="4" height="244"/>
</g>
<path style="fill:#A1E8FD;" d="M152,136.2L80,260.6v-28.4l72-124.8V136.2L152,136.2z"/>
<rect x="156" y="109" style="fill:#64BCE1;" width="4" height="244"/>
<path style="fill:#A1E8FD;" d="M317.2,167.4L240,300.6v-30.4L317.2,137V167.4L317.2,167.4z"/>
<g>
	<rect x="236" y="137" style="fill:#64BCE1;" width="4" height="244"/>
	<rect x="316" y="109" style="fill:#64BCE1;" width="4" height="244"/>
</g>
<path style="fill:#E5CEC8;" d="M236,219.4c-9.6,16.4-18,33.6-24,51.6c-1.6,4.4-1.6,4.8-4,6c-2.4-0.8-2.4-1.6-4-6
	c-10-30-28-58.4-44-84.8V109l29.2,10.8c4.4,5.6,11.2,9.2,18.8,9.2c1.6,0,3.2,0,4.8-0.4L236,137V219.4L236,219.4z"/>
<path style="fill:#F88765;" d="M200,13c-44,0-80,36-80,80c0,44.8,55.6,99.6,76,162c1.6,4.8,1.6,5.2,4,6c2.4-0.8,2.4-1.6,4-6
	c20.4-62,76-117.2,76-162C280,49,244,13,200,13z M199.2,111.8c-12.4,0-22.8-10-22.8-22.8s10-22.8,22.8-22.8
	c12.4,0,22.8,10,22.8,22.8S212,111.8,199.2,111.8z"/>
<path style="fill:#E85A2F;" d="M200,253.8L200,253.8L200,253.8C200,254.2,200,254.2,200,253.8c7.2-20.8,17.2-40.4,34.8-69.6
	c0-0.4,12-20,15.2-25.2c5.6-9.2,9.6-16.8,13.2-23.6C271.6,118.6,276,105,276,93c0-42-34-76-76-76s-76,34-76,76
	c0,12,4.4,25.6,12.8,42c3.6,6.8,7.6,14.4,13.2,23.6c3.2,5.6,15.2,24.8,15.2,25.2C182.8,213.4,192.8,232.6,200,253.8L200,253.8z
	 M196,255L196,255c-20.4-62.4-76-117.2-76-162c0-44,36-80,80-80s80,36,80,80c0,44.8-55.6,100-76,162c-1.6,4.4-1.6,4.8-4,6
	C197.6,260.2,197.6,259.4,196,255L196,255z M200,109L200,109c11.2,0,20-8.8,20-20s-8.8-20-20-20c-11.2,0-20,8.8-20,20
	S188.8,109,200,109L200,109z M200,113L200,113c-13.2,0-24-10.8-24-24s10.8-24,24-24c13.2,0,24,10.8,24,24S213.2,113,200,113L200,113
	z"/>
<g>
</g>
<g>
</g>
<g>
</g>
<g>
</g>
<g>
</g>
<g>
</g>
<g>
</g>
<g>
</g>
<g>
</g>
<g>
</g>
<g>
</g>
<g>
</g>
<g>
</g>
<g>
</g>
<g>
</g>
</svg>
